<?xml version="1.0" encoding="utf-8"?>
<svg id="svg2" viewBox="0 0 500 670" xmlns="http://www.w3.org/2000/svg">
  <desc>Source: openclipart.org/detail/209545</desc>
  <path d="M 67.081 165.44 C 69.305 167.169 71.268 169.085 73.242 171.092 C 74.095 171.936 74.095 171.936 74.965 172.797 C 76.862 174.677 78.744 176.571 80.626 178.465 C 82 179.832 83.374 181.199 84.749 182.564 C 88.52 186.314 92.277 190.076 96.033 193.841 C 100.088 197.901 104.155 201.949 108.219 205.999 C 116.178 213.932 124.126 221.877 132.07 229.825 C 138.526 236.285 144.985 242.74 151.447 249.194 C 152.367 250.112 153.286 251.03 154.233 251.976 C 156.101 253.842 157.969 255.707 159.837 257.573 C 172.378 270.098 184.915 282.628 197.444 295.165 C 197.934 295.655 198.424 296.145 198.929 296.65 C 201.411 299.134 203.894 301.618 206.376 304.102 C 206.869 304.596 207.362 305.089 207.87 305.597 C 208.867 306.595 209.864 307.593 210.861 308.59 C 226.378 324.118 241.908 339.632 257.448 355.135 C 274.912 372.558 292.366 389.99 309.805 407.437 C 319.037 416.674 328.274 425.906 337.523 435.126 C 345.395 442.974 353.256 450.833 361.105 458.705 C 365.11 462.722 369.119 466.734 373.142 470.733 C 376.824 474.393 380.492 478.067 384.15 481.753 C 385.475 483.084 386.806 484.41 388.142 485.73 C 401.981 499.415 401.981 499.415 402.115 508.89 C 401.861 514.745 399.842 518.773 395.588 522.882 C 391.219 526.697 388.02 527.616 382.331 527.753 C 381.325 527.79 380.32 527.828 379.284 527.866 C 370.828 526.742 365.686 520.331 360.097 514.437 C 358.625 512.89 357.141 511.356 355.652 509.826 C 351.423 505.478 347.204 501.122 343.028 496.723 C 340.463 494.023 337.872 491.351 335.262 488.695 C 334.277 487.682 333.302 486.659 332.337 485.626 C 327.362 479.842 327.362 479.842 320.596 477.242 C 318.253 477.743 316.262 478.463 314.081 479.44 C 313.162 479.676 312.243 479.912 311.297 480.155 C 310.52 480.37 309.744 480.586 308.944 480.808 C 233.299 501.421 156.405 490.7 88.198 452.405 C 81.242 448.42 74.601 444.098 68.081 439.44 C 66.973 438.656 66.973 438.656 65.844 437.855 C 54.734 429.946 44.159 421.627 34.081 412.44 C 33.049 411.501 33.049 411.501 31.996 410.543 C 29.85 408.58 27.713 406.607 25.581 404.628 C 24.934 404.03 24.287 403.432 23.621 402.816 C 19.714 399.146 16.121 395.309 12.63 391.242 C 10.795 389.108 8.876 387.06 6.956 385.003 C -2.932 374.035 -11.951 361.873 -19.919 349.44 C -20.394 348.713 -20.868 347.986 -21.357 347.237 C -25.618 339.485 -25.078 329.063 -23.33 320.577 C -20.681 313.12 -15.597 306.743 -10.919 300.44 C -10.143 299.387 -9.367 298.334 -8.568 297.249 C 0.175 285.644 9.595 274.512 20.081 264.44 C 22.677 261.861 25.252 259.264 27.807 256.643 C 37.544 246.685 48.222 238.245 59.331 229.868 C 60.032 229.338 60.733 228.807 61.456 228.261 C 62.082 227.789 62.709 227.317 63.354 226.831 C 65.053 225.462 66.551 223.993 68.081 222.44 C 67.188 221.573 66.294 220.707 65.374 219.813 C 62.046 216.576 58.735 213.322 55.428 210.062 C 53.998 208.657 52.563 207.257 51.124 205.861 C 49.049 203.847 46.992 201.818 44.936 199.784 C 44.295 199.169 43.655 198.554 42.994 197.921 C 38.247 193.176 35.409 188.605 34.866 181.718 C 35.619 175.36 36.788 170.388 41.76 165.936 C 50.099 159.656 58.404 160.153 67.081 165.44 Z M 134.081 288.44 C 122.896 311.209 121.581 339.382 129.334 363.444 C 135.522 381.501 145.488 398.854 160.081 411.44 C 160.955 412.194 161.829 412.949 162.729 413.725 C 175.983 424.711 191.412 432.296 208.081 436.44 C 209.01 436.684 209.939 436.928 210.897 437.179 C 232.103 441.716 254.205 438.297 274.081 430.44 C 274.081 423.149 263.382 414.972 258.46 409.942 C 251.887 403.501 246.69 398.891 237.051 398.754 C 232.938 399.078 228.871 399.551 224.791 400.16 C 211.931 401.492 197.491 393.702 187.721 385.827 C 175.239 375.155 165.574 360.055 163.155 343.568 C 163.064 340.968 163.461 338.611 163.889 336.046 C 165.494 324.905 165.494 324.905 161.858 314.528 C 154.362 304.698 144.66 296.198 135.081 288.44 C 134.751 288.44 134.421 288.44 134.081 288.44 Z" style="fill: rgb(255, 255, 255);"/>
  <path d="M 300.081 179.44 C 300.961 179.655 301.841 179.87 302.748 180.092 C 351.898 192.395 399.868 219.848 435.509 255.881 C 437.289 257.647 439.151 259.277 441.081 260.878 C 444.436 263.777 447.33 266.859 450.19 270.241 C 452.294 272.688 454.498 275.024 456.706 277.378 C 463.346 284.665 469.228 292.515 475.081 300.44 C 475.539 301.058 475.998 301.676 476.471 302.312 C 485.475 314.512 489.561 324.186 488.081 339.44 C 486.227 348.217 480.328 355.37 475.081 362.44 C 473.917 364.02 473.917 364.02 472.729 365.632 C 468.153 371.705 463.36 377.558 458.393 383.315 C 457.871 383.922 457.348 384.528 456.81 385.153 C 453.542 388.896 450.136 392.445 446.579 395.915 C 444.929 397.535 444.929 397.535 443.143 399.94 C 440.825 402.75 438.286 404.955 435.518 407.311 C 433.2 409.336 430.969 411.434 428.739 413.555 C 420.679 421.182 411.976 427.825 403.081 434.44 C 401.576 435.567 400.072 436.695 398.569 437.823 C 397.9 438.325 397.232 438.826 396.543 439.343 C 396.06 439.705 395.578 440.067 395.081 440.44 C 390.935 438.799 388.116 435.792 385.011 432.709 C 384.414 432.123 383.817 431.538 383.201 430.934 C 381.232 428.999 379.271 427.057 377.311 425.112 C 376.305 424.117 376.305 424.117 375.279 423.101 C 371.734 419.592 368.196 416.077 364.662 412.557 C 361.007 408.919 357.332 405.302 353.651 401.69 C 350.827 398.91 348.018 396.115 345.213 393.315 C 343.864 391.974 342.51 390.639 341.15 389.311 C 339.251 387.453 337.375 385.574 335.503 383.689 C 334.935 383.144 334.368 382.598 333.783 382.036 C 332.249 380.464 332.249 380.464 330.081 377.44 C 330.172 374.279 330.172 374.279 331.081 371.44 C 331.451 370.231 331.821 369.022 332.202 367.776 C 332.64 366.456 333.079 365.135 333.518 363.815 C 342.464 335.572 338.67 307.647 326.268 281.19 C 322.906 274.729 318.668 269.078 314.081 263.44 C 313.392 262.586 312.704 261.731 311.995 260.85 C 295.321 241.232 269.833 227.606 244.081 225.44 C 226.025 224.322 209.072 225.557 192.342 232.804 C 189.455 233.616 187.952 233.306 185.081 232.44 C 182.809 230.663 182.809 230.663 180.474 228.319 C 179.593 227.445 178.713 226.571 177.806 225.67 C 176.859 224.71 175.913 223.749 174.967 222.788 C 173.989 221.807 173.009 220.827 172.029 219.847 C 169.981 217.796 167.94 215.739 165.905 213.676 C 163.291 211.028 160.664 208.394 158.032 205.763 C 156.011 203.742 153.996 201.716 151.982 199.687 C 151.015 198.714 150.046 197.741 149.076 196.77 C 147.726 195.415 146.383 194.053 145.04 192.691 C 144.274 191.916 143.507 191.142 142.717 190.345 C 141.081 188.44 141.081 188.44 141.081 186.44 C 192.791 169.454 247.042 166.384 300.081 179.44 Z" style="fill: rgb(255, 255, 255);"/>
  <path d="M 273.081 273.44 C 287.64 284.334 297.901 299.823 301.62 317.694 C 302.749 326.875 303.377 337.402 301.081 346.44 C 298.029 345.076 295.923 343.533 293.562 341.176 C 292.545 340.167 292.545 340.167 291.506 339.137 C 290.772 338.399 290.039 337.661 289.283 336.901 C 288.502 336.124 287.721 335.347 286.916 334.546 C 284.336 331.974 281.763 329.395 279.19 326.815 C 277.402 325.029 275.614 323.243 273.826 321.457 C 270.081 317.715 266.339 313.969 262.599 310.22 C 258.272 305.882 253.938 301.551 249.6 297.224 C 245.429 293.063 241.263 288.896 237.099 284.727 C 235.326 282.952 233.551 281.178 231.774 279.406 C 229.298 276.935 226.829 274.458 224.361 271.979 C 223.619 271.242 222.877 270.504 222.113 269.744 C 221.446 269.071 220.778 268.398 220.091 267.704 C 219.506 267.119 218.921 266.533 218.319 265.93 C 217.081 264.44 217.081 264.44 217.081 262.44 C 236.06 257.686 257.156 262.566 273.081 273.44 Z" style="fill: rgb(255, 255, 255);"/>
</svg>